<svg width="64" height="64" viewBox="0 0 64 64" fill="none" xmlns="http://www.w3.org/2000/svg">
<g clip-path="url(#clip0_514_70584)">
<path fill-rule="evenodd" clip-rule="evenodd" d="M31.3301 11.9933C20.4498 12.5174 12.102 21.3362 12.246 32.1542C12.3893 42.9264 21.0735 51.6107 31.8458 51.754C45.4411 51.935 55.1879 38.7855 51.0759 25.8104C48.3919 17.3412 40.1426 11.5689 31.3301 11.9933ZM33.06 17.4706C34.6413 17.5842 36.3084 17.988 37.62 18.5751C37.6915 18.607 37.7905 18.6504 37.8401 18.6716C38.5231 18.9626 39.5411 19.5546 40.31 20.1082C41.1725 20.729 42.2435 21.725 42.8087 22.4318C42.8534 22.4878 42.9621 22.6228 43.0503 22.7318C43.8839 23.7624 44.6033 24.9935 45.1295 26.29C45.626 27.5135 45.9725 28.9134 46.0995 30.2099C46.1113 30.331 46.1252 30.4704 46.1304 30.52C46.4553 33.6722 45.4063 37.4529 43.4807 40.07C43.265 40.363 43.2212 40.4211 43.0727 40.6098C41.1647 43.0352 38.354 44.834 35.37 45.5394C34.8819 45.6548 34.6819 45.6939 34.1501 45.7782C32.208 46.086 29.9798 45.916 28.0167 45.31C25.1369 44.4212 22.5581 42.5776 20.8127 40.16C20.7054 40.0114 20.607 39.8764 20.5939 39.86C20.4867 39.7251 20.0423 39.0063 19.8455 38.6494C19.7247 38.4309 19.3601 37.7124 19.3601 37.6935C19.3601 37.688 19.3293 37.6175 19.2919 37.5368C18.4871 35.8036 18.0242 33.5627 18.0512 31.5299C18.0572 31.0736 18.0917 30.4635 18.1292 30.1499C18.1699 29.8086 18.1871 29.6796 18.2221 29.4514C18.5694 27.1853 19.5056 24.9561 20.8884 23.1026C21.0699 22.8592 21.3198 22.54 21.3601 22.4999C21.3656 22.4944 21.4511 22.3954 21.5499 22.28C22.4982 21.1725 23.6771 20.1868 24.99 19.4033C25.5272 19.0828 25.9112 18.885 26.57 18.59C28.4808 17.7339 30.9055 17.3157 33.06 17.4706ZM24.9701 22.2512C22.6364 22.6265 21.4596 25.2425 22.7459 27.1955C24.2252 29.4418 27.6673 29.0086 28.5476 26.4653C29.3299 24.2051 27.3465 21.869 24.9701 22.2512Z" fill="#FBFBFB"/>
<path fill-rule="evenodd" clip-rule="evenodd" d="M30.8871 8.13981C30.5818 8.15445 30.3358 8.17053 30.11 8.19045C30.055 8.19537 29.848 8.21337 29.65 8.23053C29.452 8.24769 29.2405 8.26965 29.18 8.27937C29.1195 8.28909 29.016 8.30289 28.95 8.30997C28.1074 8.40081 26.3018 8.77221 25.45 9.02985C25.362 9.05649 25.1865 9.10929 25.06 9.14733C24.7315 9.24609 23.7237 9.58809 23.61 9.63945C23.588 9.64941 23.5476 9.66369 23.52 9.67137C23.4925 9.67893 23.434 9.70149 23.39 9.72129C23.346 9.74121 23.193 9.80337 23.05 9.85953C22.907 9.91581 22.763 9.97365 22.73 9.98817C22.697 10.0028 22.5013 10.0889 22.295 10.1796C21.5632 10.5011 20.6058 10.9913 19.94 11.3851C19.7456 11.5002 18.9452 11.9996 18.84 12.0716C18.8016 12.0979 18.6728 12.1848 18.5541 12.2647C18.0967 12.5725 17.5203 13.0005 16.9989 13.4197C16.6604 13.6917 16.5542 13.7811 16.2606 14.0411C16.1667 14.1242 16.0594 14.2187 16.022 14.2511C15.8252 14.4216 15.6597 14.5809 15.1297 15.11C14.8101 15.429 14.476 15.771 14.3872 15.87C14.1162 16.1719 13.8948 16.4239 13.7899 16.5499C13.7349 16.6158 13.6748 16.6878 13.6563 16.7099C13.2343 17.2128 12.7455 17.8535 12.3897 18.3701C12.087 18.8095 11.5 19.7201 11.5 19.7502C11.5 19.7543 11.452 19.8369 11.3934 19.9339C11.3347 20.0307 11.2546 20.1685 11.2156 20.24C11.1766 20.3115 11.0842 20.478 11.0103 20.61C10.7118 21.1433 10.3371 21.9197 10.0255 22.65C9.68348 23.4519 9.34856 24.3714 9.1514 25.05C9.1226 25.149 9.07988 25.293 9.05636 25.37C8.97176 25.6481 8.80304 26.3006 8.7128 26.7C8.5622 27.3662 8.47712 27.8151 8.39072 28.4C8.37368 28.5156 8.35064 28.6684 8.33972 28.74C8.28404 29.1027 8.21204 29.7668 8.189 30.1301C8.18204 30.24 8.1728 30.3525 8.16836 30.38C8.13236 30.6071 8.1164 32.5323 8.14496 33.2C8.18528 34.1383 8.31332 35.2698 8.4902 36.2501C8.53568 36.5015 8.56784 36.6612 8.67392 37.16C8.93264 38.3763 9.47444 40.1032 9.92264 41.14C9.93452 41.1675 9.95552 41.217 9.96932 41.25C9.98312 41.283 10.0044 41.3325 10.0165 41.36C10.0286 41.3875 10.1118 41.5765 10.2012 41.78C10.4294 42.2999 10.916 43.2724 11.1128 43.6026C11.1498 43.6646 11.18 43.7199 11.18 43.7257C11.18 43.7343 11.2548 43.8637 11.4099 44.1237C11.421 44.1422 11.4626 44.2146 11.5023 44.2845C11.669 44.5776 12.3679 45.6432 12.5881 45.94C12.633 46.0005 12.6883 46.0772 12.7112 46.1106C12.734 46.1438 12.7672 46.1888 12.7851 46.2105C12.8029 46.2322 12.9048 46.3663 13.0113 46.5085C13.7332 47.4711 14.8052 48.6553 15.72 49.5006C15.8685 49.6377 15.9945 49.7545 16 49.76C16.0054 49.7655 16.0864 49.8374 16.18 49.9197C16.2735 50.002 16.3545 50.0742 16.36 50.0798C16.3654 50.0856 16.4284 50.1397 16.5 50.2C16.5715 50.2604 16.6345 50.3145 16.64 50.3203C16.6455 50.3262 16.8075 50.4562 17 50.6096C17.1925 50.763 17.3545 50.8937 17.36 50.9001C17.3712 50.9133 17.7552 51.1986 17.9673 51.3512C18.0428 51.4056 18.1374 51.4739 18.1773 51.5031C18.4166 51.6779 19.2244 52.2099 19.56 52.4137C19.9177 52.631 19.92 52.6323 20.1 52.7318C20.1934 52.7834 20.3104 52.8504 20.36 52.8806C20.4094 52.9109 20.512 52.968 20.5879 53.0077C20.6636 53.0474 20.7356 53.0878 20.7478 53.0976C20.8317 53.1648 22.4962 53.96 22.5531 53.96C22.5583 53.96 22.6182 53.986 22.6863 54.0178C22.8519 54.0954 23.3776 54.3061 23.65 54.4042C24.3276 54.6484 24.6201 54.7467 25.14 54.9049C25.1785 54.9165 25.246 54.9378 25.29 54.9522C25.334 54.9665 25.442 54.9974 25.53 55.0209C25.618 55.0445 25.7395 55.0771 25.8 55.0933C26.5365 55.2915 27.4304 55.4846 28.1 55.5902C28.2814 55.6188 28.475 55.6502 28.53 55.66C28.6345 55.6786 29.1336 55.7427 29.46 55.7793C29.689 55.805 30.0448 55.8342 30.45 55.8605C30.615 55.8713 30.8445 55.8867 30.96 55.8949C31.3137 55.9201 32.9168 55.9118 33.3 55.8828C33.8408 55.8419 34.5738 55.7799 34.74 55.7611C35.0685 55.724 35.2778 55.6966 35.44 55.6698C35.5335 55.6543 35.754 55.6182 35.93 55.5894C36.8331 55.442 37.92 55.1964 38.67 54.9703C39.2634 54.7915 39.8624 54.5973 40.09 54.5102C40.156 54.485 40.2775 54.4399 40.36 54.4099C40.5469 54.3421 41.2422 54.0677 41.35 54.0191C41.5705 53.9198 41.662 53.88 41.6701 53.88C41.6785 53.88 41.7759 53.835 42.31 53.5841C42.5872 53.4537 43.035 53.226 43.3458 53.0572C43.4644 52.9928 43.5649 52.94 43.5691 52.94C43.5733 52.94 43.6682 52.886 43.78 52.82C43.8918 52.754 43.9863 52.7 43.99 52.7C43.9939 52.7 44.1123 52.6296 44.2534 52.5434C44.3946 52.4574 44.5594 52.3569 44.62 52.3203C44.759 52.2361 45.01 52.0739 45.28 51.8939C45.5832 51.6917 45.7908 51.5484 46.0768 51.3435C46.124 51.3098 46.4634 51.0537 46.694 50.8777C46.7623 50.8256 46.8747 50.7367 46.9441 50.6799C47.0133 50.6233 47.0835 50.5663 47.1 50.5533C47.1549 50.5105 47.3498 50.3502 47.36 50.3396C47.3655 50.334 47.4285 50.2812 47.5 50.2222C48.0993 49.7288 49.4131 48.4441 49.8663 47.908C49.9014 47.8666 49.9716 47.7871 50.0222 47.7314C50.073 47.6756 50.2077 47.5176 50.3216 47.38C50.4355 47.2425 50.54 47.1182 50.554 47.1039C50.568 47.0895 50.6218 47.022 50.6738 46.9539C50.7256 46.8858 50.7734 46.8255 50.7799 46.82C50.7862 46.8145 50.8354 46.7515 50.8891 46.68C50.9428 46.6085 51.0108 46.5184 51.0402 46.48C51.0696 46.4415 51.1566 46.3245 51.2336 46.22C51.3105 46.1155 51.4262 45.9587 51.4905 45.8715C51.6235 45.6914 52.0848 45.0027 52.22 44.7825C52.2694 44.7019 52.3285 44.6077 52.3509 44.573C52.423 44.4621 52.78 43.8601 52.78 43.8495C52.78 43.8439 52.8012 43.8056 52.827 43.7646C52.9954 43.4968 53.4339 42.6395 53.7344 41.99C54.8935 39.4848 55.6387 36.6141 55.8394 33.8801C55.852 33.7095 55.8694 33.4755 55.8781 33.36C55.9179 32.8317 55.9204 31.2482 55.8823 30.71C55.8012 29.565 55.739 28.9951 55.6105 28.22C55.595 28.1265 55.5721 27.987 55.5595 27.9101C55.2652 26.1111 54.575 23.8634 53.806 22.2C53.7628 22.1065 53.7056 21.9805 53.679 21.92C53.6146 21.7745 53.1594 20.8628 53.0746 20.7101C53.038 20.6441 52.9644 20.5091 52.9107 20.4101C52.8572 20.3111 52.7788 20.1737 52.7367 20.1047C52.6945 20.0358 52.66 19.9752 52.66 19.9703C52.66 19.9652 52.5867 19.8416 52.4972 19.6956C52.4077 19.5495 52.3051 19.3805 52.2691 19.32C52.0436 18.9408 51.234 17.7789 50.959 17.4401C50.9188 17.3905 50.7974 17.2375 50.689 17.1C50.5219 16.8877 50.3155 16.6356 50.28 16.6001C50.2744 16.5945 50.2285 16.5405 50.1776 16.4801C49.9527 16.2121 49.9082 16.1622 49.5086 15.731C49.0099 15.1927 48.1792 14.385 47.775 14.0449C47.7261 14.0037 47.5969 13.8932 47.488 13.7993C47.1866 13.5393 46.9026 13.3105 46.55 13.0434C46.374 12.9101 46.2184 12.7911 46.2044 12.7791C46.1223 12.7092 45.488 12.2721 45.119 12.0313C44.6193 11.7051 44.6768 11.7415 44.37 11.5581C44.238 11.4792 44.084 11.3851 44.0278 11.349C43.9717 11.313 43.8637 11.2511 43.7878 11.2116C43.712 11.1721 43.6365 11.1313 43.62 11.1209C43.4758 11.0303 42.6422 10.6011 42.25 10.4159C41.0745 9.86037 39.8 9.37989 38.55 9.02085C37.5046 8.72049 35.8047 8.37909 34.9114 8.28993C34.8351 8.28225 34.7541 8.27289 34.7314 8.26905C34.103 8.16309 31.9252 8.08989 30.8871 8.13981ZM33.21 12.0002C45.6895 12.7265 54.4208 24.5167 51.4498 36.63C48.7645 47.579 37.4432 54.1247 26.61 50.9917C15.4762 47.7719 9.43736 35.7619 13.4905 24.9C16.5224 16.7749 24.5883 11.4984 33.21 12.0002ZM31.6584 17.4473C31.6538 17.4513 31.524 17.4601 31.37 17.4668C30.172 17.5193 28.8163 17.7815 27.612 18.1935C27.277 18.3083 26.6041 18.5727 26.571 18.6027C26.5605 18.6122 26.5388 18.62 26.5228 18.62C26.4802 18.62 25.5297 19.0953 25.26 19.2515C25.1335 19.3247 24.9792 19.4141 24.917 19.4501C23.7349 20.1353 22.322 21.3491 21.3768 22.4916C20.4574 23.6027 19.8454 24.6024 19.2106 26.03C18.215 28.2693 17.8326 31.1275 18.1909 33.6513C18.5659 36.2929 19.564 38.6063 21.2277 40.6897C21.4798 41.0054 21.4833 41.0094 21.83 41.3889C22.6584 42.2958 23.815 43.2547 24.77 43.8264C25.4442 44.2299 25.8981 44.4684 26.53 44.7508C26.8939 44.9134 27.581 45.1727 27.9049 45.2695C27.9957 45.2966 28.1464 45.3418 28.24 45.37C32.9944 46.8043 38.3648 45.4225 41.9606 41.84C44.9746 38.837 46.5468 34.4751 46.1089 30.33C45.7969 27.3752 44.7333 24.7929 42.9129 22.5701C42.2295 21.7356 41.1903 20.7438 40.46 20.2287C40.3995 20.1861 40.3455 20.1457 40.34 20.1391C40.2151 19.988 38.9934 19.2458 38.3 18.8997C36.3922 17.9477 34.2238 17.4401 32.0641 17.4401C31.8456 17.4401 31.6629 17.4433 31.6584 17.4473ZM25.99 22.2491C28.166 22.6136 29.352 24.9063 28.3802 26.87C27.4724 28.7046 25.0815 29.2378 23.45 27.9698C22.0002 26.843 21.7903 24.7559 22.9849 23.3447C23.7051 22.494 24.8848 22.0639 25.99 22.2491Z" fill="#23A49C"/>
<path fill-rule="evenodd" clip-rule="evenodd" d="M18.0495 17.8049L17.89 17.9699L18.055 17.8105C18.1458 17.7227 18.22 17.6485 18.22 17.6455C18.22 17.6308 18.1977 17.6517 18.0495 17.8049ZM25.375 22.2146C25.4217 22.2188 25.4983 22.2188 25.545 22.2146C25.5918 22.2104 25.5535 22.207 25.46 22.207C25.3665 22.207 25.3282 22.2104 25.375 22.2146ZM23.139 23.1749L23.07 23.2499L23.145 23.1811C23.2148 23.1169 23.2292 23.0999 23.214 23.0999C23.2106 23.0999 23.1769 23.1338 23.139 23.1749ZM22.2062 25.43C22.2063 25.496 22.21 25.5206 22.2145 25.4846C22.2189 25.4487 22.2188 25.3947 22.2142 25.3646C22.2097 25.3346 22.2061 25.364 22.2062 25.43ZM12.2274 31.88C12.2274 31.9955 12.2307 32.0427 12.2348 31.985C12.2388 31.9273 12.2388 31.8327 12.2348 31.775C12.2307 31.7173 12.2274 31.7644 12.2274 31.88ZM46.1895 45.9449L46.03 46.1099L46.195 45.9504C46.3483 45.8022 46.3692 45.7799 46.3545 45.7799C46.3515 45.7799 46.2772 45.8542 46.1895 45.9449ZM32.015 51.7748C32.0727 51.7787 32.1673 51.7787 32.225 51.7748C32.2827 51.7707 32.2356 51.7673 32.12 51.7673C32.0044 51.7673 31.9573 51.7707 32.015 51.7748Z" fill="#73C3C0"/>
<path fill-rule="evenodd" clip-rule="evenodd" d="M18.0446 31.98C18.0446 32.0185 18.0488 32.0342 18.0538 32.015C18.0587 31.9958 18.0587 31.9642 18.0538 31.945C18.0488 31.9257 18.0446 31.9414 18.0446 31.98Z" fill="#A8D8D6"/>
<path fill-rule="evenodd" clip-rule="evenodd" d="M12.226 31.58C12.226 31.6404 12.2298 31.6652 12.2343 31.6349C12.2389 31.6047 12.2389 31.5552 12.2343 31.525C12.2298 31.4948 12.226 31.5195 12.226 31.58ZM12.2257 32.17C12.2259 32.225 12.2298 32.2451 12.2343 32.2146C12.239 32.1843 12.2389 32.1393 12.2341 32.1147C12.2293 32.0901 12.2256 32.1149 12.2257 32.17ZM31.7853 51.7743C31.8157 51.779 31.8607 51.7788 31.8853 51.774C31.9099 51.7692 31.885 51.7655 31.83 51.7656C31.775 51.7659 31.7548 51.7697 31.7853 51.7743ZM32.365 51.7743C32.3953 51.7788 32.4447 51.7788 32.475 51.7743C32.5052 51.7697 32.4805 51.766 32.42 51.766C32.3595 51.766 32.3348 51.7697 32.365 51.7743Z" fill="#50B6B4"/>
</g>
<defs>
<clipPath id="clip0_514_70584">
<rect width="48" height="48" fill="white" transform="translate(8 8)"/>
</clipPath>
</defs>
</svg>
