<svg width="48" height="48" viewBox="0 0 48 48" fill="none" xmlns="http://www.w3.org/2000/svg">
<path d="M24 48C37.2548 48 48 37.2548 48 24C48 10.7452 37.2548 0 24 0C10.7452 0 0 10.7452 0 24C0 37.2548 10.7452 48 24 48Z" fill="white" fill-opacity="0.2"/>
<path d="M24 0.299805C37.0892 0.299805 47.7002 10.9109 47.7002 24C47.7002 37.0892 37.0892 47.7002 24 47.7002C10.9109 47.7002 0.299805 37.0892 0.299805 24C0.299805 10.9109 10.9109 0.299805 24 0.299805Z" stroke="url(#paint0_linear_1362_10487)" stroke-opacity="0.5" stroke-width="0.6"/>
<path d="M23.9899 4.5752C13.256 4.5752 4.5625 13.2768 4.5625 24.0026C4.5625 34.7284 13.2641 43.43 23.9899 43.43C34.7157 43.43 43.4173 34.7284 43.4173 24.0026C43.4173 13.2768 34.7238 4.5752 23.9899 4.5752ZM32.8851 21.5752L26.4173 15.1075L28.756 12.7687C30.5383 10.9865 33.4335 10.9865 35.2238 12.7687C37.006 14.551 37.006 17.4462 35.2238 19.2365L32.8851 21.5752ZM35.2238 28.7607C37.006 30.5429 37.006 33.4381 35.2238 35.2284C33.4415 37.0107 30.5464 37.0107 28.756 35.2284L26.4173 32.8897L32.8851 26.422L35.2238 28.7607ZM23.9899 30.4623L20.7641 27.2365H23.9899L17.5383 24.0107L17.5222 23.9945L23.9899 17.5268L27.2238 20.7607H23.9899L30.4496 23.9945L23.9819 30.4623H23.9899ZM12.756 35.2365C10.9738 33.4542 10.9738 30.5591 12.756 28.7687L15.1028 26.422L21.5706 32.8897L19.2238 35.2365C17.4415 37.0187 14.5464 37.0187 12.756 35.2365ZM12.756 19.2284C10.9738 17.4462 10.9738 14.551 12.756 12.7607C14.5383 10.9784 17.4335 10.9784 19.2238 12.7607L21.5706 15.1075L15.1028 21.5752L12.756 19.2284ZM28.7157 8.71229C27.8528 9.09939 27.0464 9.63971 26.3367 10.3494L23.998 12.6881L21.6593 10.3494C20.9496 9.63971 20.1431 9.09939 19.2802 8.71229C20.7722 8.25261 22.3528 8.00261 23.998 8.00261C25.6431 8.00261 27.2238 8.25261 28.7238 8.71229H28.7157ZM8.70766 19.2687C9.09476 20.1316 9.63508 20.9462 10.3448 21.6558L12.6835 23.9945L10.3448 26.3333C9.63508 27.0429 9.09476 27.8574 8.70766 28.7284C8.24798 27.2365 7.99798 25.6478 7.99798 24.0026C7.99798 22.3574 8.24798 20.7687 8.70766 19.2687ZM19.2722 39.2929C20.1351 38.9058 20.9496 38.3655 21.6673 37.6558L24.006 35.3171L26.3448 37.6558C27.0544 38.3655 27.8689 38.9058 28.7318 39.2929C27.2399 39.7526 25.6512 40.0026 23.998 40.0026C22.3448 40.0026 20.7641 39.7526 19.2722 39.2929ZM39.2964 28.7204C38.9093 27.8574 38.3689 27.051 37.6593 26.3413L35.3206 24.0026L37.6593 21.6639C38.3689 20.9542 38.9093 20.1478 39.2964 19.2849C39.756 20.7768 40.006 22.3655 40.006 24.0107C40.006 25.6558 39.756 27.2365 39.2964 28.7284V28.7204Z" fill="white"/>
<defs>
<linearGradient id="paint0_linear_1362_10487" x1="0" y1="0" x2="48" y2="48" gradientUnits="userSpaceOnUse">
<stop stop-color="white" stop-opacity="0.2"/>
<stop offset="1" stop-color="white"/>
</linearGradient>
</defs>
</svg>
