<svg width="64" height="64" viewBox="0 0 64 64" fill="none" xmlns="http://www.w3.org/2000/svg">
<path d="M32 56C45.2548 56 56 45.2548 56 32C56 18.7452 45.2548 8 32 8C18.7452 8 8 18.7452 8 32C8 45.2548 18.7452 56 32 56Z" fill="#125AED"/>
<path d="M32 56C45.2548 56 56 45.2548 56 32C56 18.7452 45.2548 8 32 8C18.7452 8 8 18.7452 8 32C8 45.2548 18.7452 56 32 56Z" fill="white" fill-opacity="0.05"/>
<path d="M31.9899 12.5755C21.256 12.5755 12.5625 21.2771 12.5625 32.0029C12.5625 42.7287 21.2641 51.4303 31.9899 51.4303C42.7157 51.4303 51.4173 42.7287 51.4173 32.0029C51.4173 21.2771 42.7238 12.5755 31.9899 12.5755ZM40.8851 29.5755L34.4173 23.1078L36.756 20.769C38.5383 18.9868 41.4335 18.9868 43.2238 20.769C45.006 22.5513 45.006 25.4465 43.2238 27.2368L40.8851 29.5755ZM43.2238 36.761C45.006 38.5432 45.006 41.4384 43.2238 43.2287C41.4415 45.011 38.5464 45.011 36.756 43.2287L34.4173 40.89L40.8851 34.4223L43.2238 36.761ZM31.9899 38.4626L28.7641 35.2368H31.9899L25.5383 32.011L25.5222 31.9949L31.9899 25.5271L35.2238 28.761H31.9899L38.4496 31.9949L31.9819 38.4626H31.9899ZM20.756 43.2368C18.9738 41.4545 18.9738 38.5594 20.756 36.769L23.1028 34.4223L29.5706 40.89L27.2238 43.2368C25.4415 45.019 22.5464 45.019 20.756 43.2368ZM20.756 27.2287C18.9738 25.4465 18.9738 22.5513 20.756 20.761C22.5383 18.9787 25.4335 18.9787 27.2238 20.761L29.5706 23.1078L23.1028 29.5755L20.756 27.2287ZM36.7157 16.7126C35.8528 17.0997 35.0464 17.64 34.3367 18.3497L31.998 20.6884L29.6593 18.3497C28.9496 17.64 28.1431 17.0997 27.2802 16.7126C28.7722 16.2529 30.3528 16.0029 31.998 16.0029C33.6431 16.0029 35.2238 16.2529 36.7238 16.7126H36.7157ZM16.7077 27.269C17.0948 28.132 17.6351 28.9465 18.3448 29.6561L20.6835 31.9949L18.3448 34.3336C17.6351 35.0432 17.0948 35.8578 16.7077 36.7287C16.248 35.2368 15.998 33.6481 15.998 32.0029C15.998 30.3578 16.248 28.769 16.7077 27.269ZM27.2722 47.2932C28.1351 46.9061 28.9496 46.3658 29.6673 45.6561L32.006 43.3174L34.3448 45.6561C35.0544 46.3658 35.8689 46.9061 36.7318 47.2932C35.2399 47.7529 33.6512 48.0029 31.998 48.0029C30.3448 48.0029 28.7641 47.7529 27.2722 47.2932ZM47.2964 36.7207C46.9093 35.8578 46.3689 35.0513 45.6593 34.3416L43.3206 32.0029L45.6593 29.6642C46.3689 28.9545 46.9093 28.1481 47.2964 27.2852C47.756 28.7771 48.006 30.3658 48.006 32.011C48.006 33.6561 47.756 35.2368 47.2964 36.7287V36.7207Z" fill="white"/>
</svg>
