<svg width="64" height="64" viewBox="0 0 64 64" fill="none" xmlns="http://www.w3.org/2000/svg">
<path d="M32 56C45.2548 56 56 45.2548 56 32C56 18.7452 45.2548 8 32 8C18.7452 8 8 18.7452 8 32C8 45.2548 18.7452 56 32 56Z" fill="#3F3F3F"/>
<path d="M32 56C45.2548 56 56 45.2548 56 32C56 18.7452 45.2548 8 32 8C18.7452 8 8 18.7452 8 32C8 45.2548 18.7452 56 32 56Z" fill="white" fill-opacity="0.05"/>
<path d="M31.9899 12.5756C21.256 12.5756 12.5625 21.2772 12.5625 32.003C12.5625 42.7288 21.2641 51.4304 31.9899 51.4304C42.7157 51.4304 51.4173 42.7288 51.4173 32.003C51.4173 21.2772 42.7238 12.5756 31.9899 12.5756ZM40.8851 29.5756L34.4173 23.1078L36.756 20.7691C38.5383 18.9869 41.4335 18.9869 43.2238 20.7691C45.006 22.5514 45.006 25.4465 43.2238 27.2369L40.8851 29.5756ZM43.2238 36.761C45.006 38.5433 45.006 41.4385 43.2238 43.2288C41.4415 45.011 38.5464 45.011 36.756 43.2288L34.4173 40.8901L40.8851 34.4223L43.2238 36.761ZM31.9899 38.4627L28.7641 35.2369H31.9899L25.5383 32.011L25.5222 31.9949L31.9899 25.5272L35.2238 28.761H31.9899L38.4496 31.9949L31.9819 38.4627H31.9899ZM20.756 43.2368C18.9738 41.4546 18.9738 38.5594 20.756 36.7691L23.1028 34.4223L29.5706 40.8901L27.2238 43.2368C25.4415 45.0191 22.5464 45.0191 20.756 43.2368ZM20.756 27.2288C18.9738 25.4465 18.9738 22.5514 20.756 20.761C22.5383 18.9788 25.4335 18.9788 27.2238 20.761L29.5706 23.1078L23.1028 29.5756L20.756 27.2288ZM36.7157 16.7127C35.8528 17.0998 35.0464 17.6401 34.3367 18.3498L31.998 20.6885L29.6593 18.3498C28.9496 17.6401 28.1431 17.0998 27.2802 16.7127C28.7722 16.253 30.3528 16.003 31.998 16.003C33.6431 16.003 35.2238 16.253 36.7238 16.7127H36.7157ZM16.7077 27.2691C17.0948 28.132 17.6351 28.9465 18.3448 29.6562L20.6835 31.9949L18.3448 34.3336C17.6351 35.0433 17.0948 35.8578 16.7077 36.7288C16.248 35.2368 15.998 33.6481 15.998 32.003C15.998 30.3578 16.248 28.7691 16.7077 27.2691ZM27.2722 47.2933C28.1351 46.9062 28.9496 46.3659 29.6673 45.6562L32.006 43.3175L34.3448 45.6562C35.0544 46.3659 35.8689 46.9062 36.7318 47.2933C35.2399 47.753 33.6512 48.003 31.998 48.003C30.3448 48.003 28.7641 47.753 27.2722 47.2933ZM47.2964 36.7207C46.9093 35.8578 46.3689 35.0514 45.6593 34.3417L43.3206 32.003L45.6593 29.6643C46.3689 28.9546 46.9093 28.1481 47.2964 27.2852C47.756 28.7772 48.006 30.3659 48.006 32.011C48.006 33.6562 47.756 35.2368 47.2964 36.7288V36.7207Z" fill="white"/>
</svg>
