<svg width="134" height="42" viewBox="0 0 134 42" fill="none" xmlns="http://www.w3.org/2000/svg">
<g clip-path="url(#clip0_2137_11789)">
<path d="M13.6118 7.58968H4.349V0H0V19.4402H4.349V11.3896H13.6118V19.4402H17.9589V0H13.6118V7.58968Z" fill="white"/>
<path d="M108.051 1.10882C107.138 2.0237 107.102 3.35857 107.078 4.1367V19.4402H111.42V13.2375H120.645V19.4402H125.006V0H111.451C110.163 0.0116278 108.958 0.194882 108.051 1.10882ZM112.529 3.79856H120.645V9.44175H111.42V4.90878C111.439 4.68553 111.395 4.28088 111.587 4.04135C111.793 3.78879 112.12 3.80926 112.529 3.79856Z" fill="white"/>
<path d="M77.2904 0H63.7109V19.4402H68.0599V3.79856H76.2141C76.6194 3.80926 76.9516 3.78879 77.1528 4.04088C77.3474 4.28042 77.3089 4.68506 77.3227 4.90832V19.4398H81.6674V4.1367C81.6432 3.35857 81.6091 2.0237 80.7007 1.10882C79.7891 0.194882 78.5855 0.0116278 77.2904 0Z" fill="white"/>
<path d="M55.5156 14.5296C55.4999 14.7575 55.5393 15.1533 55.3476 15.3947C55.1416 15.6496 54.8108 15.6273 54.4074 15.638H46.2552V0H41.9043V19.4402H55.4866C56.7784 19.4305 57.9829 19.2421 58.8917 18.3282C59.8043 17.4147 59.839 16.0817 59.8636 15.3008V0H55.5165V14.5296H55.5156Z" fill="white"/>
<path d="M103.473 4.1367C103.452 3.35857 103.415 2.0237 102.507 1.10882C101.598 0.194882 100.392 0.0116278 99.102 0H89.8701H85.5254V19.4402H99.102C100.392 19.4305 101.598 19.2421 102.507 18.3282C103.415 17.4147 103.452 16.0817 103.473 15.3008V4.1367ZM99.1414 14.5296C99.1258 14.7575 99.1656 15.1533 98.9753 15.3947C98.7712 15.6496 98.4367 15.6273 98.0328 15.638H89.8701V3.79856H98.0328C98.4371 3.80926 98.7717 3.78879 98.9753 4.04088C99.1651 4.28042 99.1253 4.68506 99.1414 4.90832V14.5296Z" fill="white"/>
<path d="M29.9367 8.50549L24.6618 0H19.4961L27.6137 12.2561V19.4402H32.2569V12.2561L40.3731 0H35.2055L29.9367 8.50549Z" fill="white"/>
<path d="M134 0H129.363V19.4402H134V0Z" fill="white"/>
<path d="M134 24.5254H0V27.4537H134V24.5254Z" fill="white"/>
<path d="M87.1339 39.0679C87.5615 39.0196 87.9478 38.894 88.2601 38.5768C88.6829 38.154 88.7033 37.5382 88.7114 37.1768V34.868C88.7028 34.5085 88.6824 33.8903 88.2601 33.4671C87.842 33.0443 87.2843 32.9587 86.6878 32.9531H80.375V42H82.4161V39.0898H84.9955L86.983 42H89.1366L87.1339 39.0679ZM86.7932 36.8335C86.7837 36.9266 86.7732 37.0238 86.7177 37.0954C86.6237 37.2126 86.4685 37.2047 86.2825 37.2047H82.4166V34.8378H86.2825C86.4685 34.8429 86.6237 34.8331 86.7177 34.9512C86.7732 35.0219 86.7841 35.1229 86.7932 35.2112V36.8335Z" fill="white"/>
<path d="M62.445 39.0679C62.8735 39.0196 63.2593 38.894 63.5735 38.5768C63.9949 38.154 64.0158 37.5382 64.0239 37.1768V34.868C64.0158 34.5085 63.9949 33.8903 63.5735 33.4671C63.1545 33.0443 62.5954 32.9587 61.9974 32.9531H55.6875V42H57.7263V39.0898H60.307L62.2945 42H64.4463L62.445 39.0679ZM62.1023 36.8335C62.0952 36.9266 62.0843 37.0238 62.0292 37.0954C61.9353 37.2126 61.781 37.2047 61.5936 37.2047H57.7267V34.8378H61.5936C61.781 34.8429 61.9353 34.8331 62.0292 34.9512C62.0848 35.0219 62.0957 35.1229 62.1023 35.2112V36.8335Z" fill="white"/>
<path d="M36.0488 32.9531V34.934H39.2024V42H41.2245V34.934H44.3809V32.9531H36.0488Z" fill="white"/>
<path d="M14.9766 32.9531V42H16.9968V36.2763L18.9744 42H20.7602L22.7359 36.2763V42H24.7557V32.9531H22.0767L19.8661 39.3242L17.656 32.9531H14.9766Z" fill="white"/>
<path d="M110.703 41.9995H112.722V39.4065H116.996C117.596 39.4038 118.153 39.3163 118.57 38.8935C118.994 38.467 119.013 37.8526 119.023 37.4949V34.8689C119.013 34.508 118.993 33.8931 118.57 33.468C118.153 33.0471 117.596 32.9587 116.996 32.9531H110.703V41.9995ZM117.097 37.147C117.093 37.2363 117.083 37.3373 117.028 37.4089C116.933 37.5242 116.779 37.5214 116.59 37.5214H112.722V34.8364H116.59C116.778 34.8401 116.933 34.8326 117.028 34.9517C117.083 35.0215 117.093 35.1196 117.097 35.2108V37.147Z" fill="white"/>
<path d="M72.3579 35.0447C72.4476 34.9303 72.6018 34.9364 72.7874 34.9322H78.5976V32.9531H72.2863C71.6883 32.9587 71.1321 33.0471 70.7088 33.468C70.2859 33.8931 70.2712 34.508 70.2617 34.8675V40.0856C70.2717 40.4456 70.2864 41.0637 70.7088 41.4865C71.1326 41.9074 71.6883 41.9958 72.2863 42H76.5712C77.1701 41.9963 77.7263 41.9079 78.1477 41.4865C78.5677 41.0637 78.5872 40.4456 78.5972 40.0856V36.5777H74.242V38.3442H76.5736V39.6442C76.5707 39.7363 76.5598 39.8372 76.5005 39.9061C76.4079 40.0224 76.2532 40.0158 76.0672 40.0186H72.7869C72.6009 40.0158 72.4471 40.0223 72.3574 39.9051C72.3 39.8372 72.2863 39.7363 72.2825 39.6442V35.3071C72.2863 35.2173 72.3005 35.1173 72.3579 35.0447Z" fill="white"/>
<path d="M106.914 39.72C106.907 39.8251 106.924 40.0093 106.837 40.1228C106.739 40.24 106.587 40.2312 106.398 40.2354H102.613V32.9531H100.594V42H106.901C107.5 41.9972 108.058 41.9088 108.483 41.4865C108.904 41.0605 108.921 40.4419 108.931 40.081V32.9531H106.913L106.914 39.72Z" fill="white"/>
<path d="M98.4251 33.468C98.0065 33.0471 97.446 32.9587 96.8495 32.9531H92.5645C91.968 32.9587 91.4104 33.0471 90.989 33.468C90.5675 33.8931 90.5505 34.508 90.5391 34.8689V40.0856C90.5505 40.4456 90.568 41.0637 90.989 41.4865C91.4109 41.9074 91.968 41.9958 92.5645 42H96.8495C97.4465 41.9963 98.0065 41.9079 98.4251 41.4865C98.8498 41.0637 98.8678 40.4456 98.8764 40.0856V34.8685C98.8674 34.5075 98.8493 33.8927 98.4251 33.468ZM96.8528 39.6442C96.849 39.7363 96.8381 39.8372 96.783 39.9061C96.6881 40.0224 96.5358 40.0158 96.3479 40.0186H93.0695C92.882 40.0158 92.7278 40.0224 92.6357 39.9061C92.5774 39.8372 92.5645 39.7363 92.5589 39.6442V35.3071C92.5645 35.2168 92.5774 35.1168 92.6357 35.0457C92.7278 34.9294 92.8825 34.9382 93.0695 34.9312H96.3479C96.5358 34.9382 96.6881 34.9294 96.783 35.0457C96.8381 35.1164 96.8495 35.2164 96.8528 35.3071V39.6442Z" fill="white"/>
<path d="M53.5047 33.468C53.0861 33.0471 52.5256 32.9587 51.93 32.9531H47.6432C47.0476 32.9587 46.49 33.0471 46.0686 33.468C45.6467 33.8931 45.6301 34.508 45.6191 34.8689V40.0856C45.6296 40.4456 45.6467 41.0637 46.0686 41.4865C46.49 41.9074 47.0476 41.9958 47.6432 42H51.93C52.5261 41.9963 53.0861 41.9079 53.5047 41.4865C53.9294 41.0637 53.946 40.4456 53.9541 40.0856V34.8685C53.946 34.5075 53.9294 33.8927 53.5047 33.468ZM51.9319 39.6442C51.93 39.7363 51.9167 39.8372 51.8607 39.9061C51.7677 40.0224 51.6144 40.0158 51.4256 40.0186H48.1472C47.9612 40.0158 47.8079 40.0224 47.7153 39.9061C47.6579 39.8372 47.6432 39.7363 47.6385 39.6442V35.3071C47.6432 35.2168 47.6579 35.1168 47.7153 35.0457C47.8074 34.9294 47.9612 34.9382 48.1472 34.9312H51.4256C51.6144 34.9382 51.7682 34.9294 51.8607 35.0457C51.9172 35.1164 51.93 35.2164 51.9319 35.3071V39.6442Z" fill="white"/>
<path d="M34.3611 33.468C33.9435 33.0471 33.383 32.9587 32.7865 32.9531H28.5015C27.9036 32.9587 27.3455 33.0471 26.9269 33.468C26.504 33.8931 26.4865 34.508 26.4746 34.8689V40.0856C26.4865 40.4456 26.5045 41.0637 26.9269 41.4865C27.3455 41.9074 27.904 41.9958 28.5015 42H32.7865C33.3835 41.9963 33.9435 41.9079 34.3611 41.4865C34.7868 41.0637 34.8024 40.4456 34.8124 40.0856V34.8685C34.8024 34.5075 34.7868 33.8927 34.3611 33.468ZM32.7893 39.6442C32.7865 39.7363 32.7765 39.8372 32.7181 39.9061C32.6251 40.0224 32.4709 40.0158 32.2834 40.0186H29.005C28.8181 40.0158 28.6633 40.0224 28.5727 39.9061C28.5153 39.8372 28.5015 39.7363 28.4963 39.6442V35.3071C28.5015 35.2168 28.5153 35.1168 28.5727 35.0457C28.6633 34.9294 28.8181 34.9382 29.005 34.9312H32.2834C32.4704 34.9382 32.6251 34.9294 32.7181 35.0457C32.7765 35.1164 32.7865 35.2164 32.7893 35.3071V39.6442Z" fill="white"/>
</g>
<defs>
<clipPath id="clip0_2137_11789">
<rect width="134" height="42" fill="white"/>
</clipPath>
</defs>
</svg>
